<svg width="17" height="16" viewBox="0 0 17 16" fill="none" xmlns="http://www.w3.org/2000/svg">
<path d="M7.52991 0.796888C7.72007 0.606791 7.97794 0.5 8.24682 0.5C8.5157 0.5 8.77357 0.606791 8.96372 0.796888L11.2888 3.12201V1.8109C11.2888 1.67643 11.3423 1.54747 11.4373 1.45239C11.5324 1.35731 11.6614 1.30389 11.7958 1.30389H12.8099C12.9443 1.30389 13.0733 1.35731 13.1684 1.45239C13.2634 1.54747 13.3169 1.67643 13.3169 1.8109V5.15002L15.7038 7.53598C15.751 7.58312 15.7884 7.63908 15.8139 7.70067C15.8394 7.76226 15.8525 7.82828 15.8525 7.89494C15.8525 7.96161 15.8394 8.02762 15.8139 8.08921C15.7884 8.1508 15.751 8.20676 15.7038 8.2539C15.6567 8.30104 15.6007 8.33843 15.5391 8.36394C15.4775 8.38946 15.4115 8.40259 15.3449 8.40259C15.2782 8.40259 15.2122 8.38946 15.1506 8.36394C15.089 8.33843 15.0331 8.30104 14.9859 8.2539L8.24682 1.51379L3.17678 6.58383V12.965C3.17678 13.0994 3.2302 13.2284 3.32528 13.3235C3.42036 13.4186 3.54932 13.472 3.68378 13.472H7.73981C7.87428 13.472 8.00324 13.5254 8.09832 13.6205C8.1934 13.7156 8.24682 13.8445 8.24682 13.979C8.24682 14.1135 8.1934 14.2424 8.09832 14.3375C8.00324 14.4326 7.87428 14.486 7.73981 14.486H3.68378C3.28039 14.486 2.89351 14.3257 2.60827 14.0405C2.32302 13.7553 2.16277 13.3684 2.16277 12.965V7.59784L1.50772 8.2539C1.46058 8.30104 1.40462 8.33843 1.34303 8.36394C1.28144 8.38946 1.21543 8.40259 1.14876 8.40259C1.0821 8.40259 1.01609 8.38946 0.954497 8.36394C0.892907 8.33843 0.836945 8.30104 0.789806 8.2539C0.742666 8.20676 0.705274 8.1508 0.679762 8.08921C0.654251 8.02762 0.64112 7.96161 0.64112 7.89494C0.64112 7.82828 0.654251 7.76226 0.679762 7.70067C0.705274 7.63908 0.742666 7.58312 0.789806 7.53598L7.52991 0.796888Z" fill="#404243"/>
<path d="M10.2748 12.458C10.2748 12.189 10.3817 11.9311 10.5718 11.741C10.762 11.5508 11.0199 11.444 11.2888 11.444V10.43C11.2888 9.8921 11.5025 9.37627 11.8828 8.99594C12.2632 8.61561 12.779 8.40195 13.3169 8.40195C13.8547 8.40195 14.3706 8.61561 14.7509 8.99594C15.1312 9.37627 15.3449 9.8921 15.3449 10.43V11.444C15.6138 11.444 15.8717 11.5508 16.0619 11.741C16.252 11.9311 16.3589 12.189 16.3589 12.458V14.486C16.3589 14.7549 16.252 15.0128 16.0619 15.203C15.8717 15.3932 15.6138 15.5 15.3449 15.5H11.2888C11.0199 15.5 10.762 15.3932 10.5718 15.203C10.3817 15.0128 10.2748 14.7549 10.2748 14.486V12.458ZM13.3169 9.41595C13.0479 9.41595 12.79 9.52279 12.5998 9.71295C12.4097 9.90311 12.3029 10.161 12.3029 10.43V11.444H14.3309V10.43C14.3309 10.161 14.224 9.90311 14.0339 9.71295C13.8437 9.52279 13.5858 9.41595 13.3169 9.41595Z" fill="#404243"/>
</svg>
