<svg width="16" height="16" viewBox="0 0 16 16" fill="none" xmlns="http://www.w3.org/2000/svg">
<path d="M2.9375 0.5C2.29103 0.5 1.67105 0.756807 1.21393 1.21393C0.756807 1.67105 0.5 2.29103 0.5 2.9375V11.5625C0.5 12.209 0.756807 12.829 1.21393 13.2861C1.67105 13.7432 2.29103 14 2.9375 14H7.2665C7.04171 13.6494 6.86299 13.2713 6.73475 12.875H2.9375C2.5894 12.875 2.25556 12.7367 2.00942 12.4906C1.76328 12.2444 1.625 11.9106 1.625 11.5625V2.9375C1.625 2.213 2.213 1.625 2.9375 1.625H11.5625C12.287 1.625 12.875 2.213 12.875 2.9375V6.73475C13.2713 6.86299 13.6494 7.04171 14 7.2665V2.9375C14 2.29103 13.7432 1.67105 13.2861 1.21393C12.829 0.756807 12.209 0.5 11.5625 0.5H2.9375ZM11.375 6.5C11.489 6.5 11.6015 6.50375 11.714 6.51125C11.7463 6.4261 11.7575 6.33436 11.7465 6.24394C11.7355 6.15352 11.7027 6.06712 11.6509 5.99221C11.5991 5.91729 11.5298 5.8561 11.4491 5.8139C11.3684 5.77171 11.2786 5.74978 11.1875 5.75H7.8125C7.66332 5.75 7.52024 5.80926 7.41475 5.91475C7.30926 6.02024 7.25 6.16332 7.25 6.3125C7.25 6.46168 7.30926 6.60476 7.41475 6.71025C7.52024 6.81574 7.66332 6.875 7.8125 6.875H9.497C10.0919 6.62668 10.7303 6.49921 11.375 6.5ZM3.3125 2.75C3.16332 2.75 3.02024 2.80926 2.91475 2.91475C2.80926 3.02024 2.75 3.16332 2.75 3.3125C2.75 3.46168 2.80926 3.60476 2.91475 3.71025C3.02024 3.81574 3.16332 3.875 3.3125 3.875H11.1875C11.3367 3.875 11.4798 3.81574 11.5852 3.71025C11.6907 3.60476 11.75 3.46168 11.75 3.3125C11.75 3.16332 11.6907 3.02024 11.5852 2.91475C11.4798 2.80926 11.3367 2.75 11.1875 2.75H3.3125ZM2.75 6.3125C2.75 6.09089 2.79365 5.87146 2.87845 5.66672C2.96326 5.46198 3.08756 5.27596 3.24426 5.11926C3.40096 4.96256 3.58698 4.83826 3.79172 4.75345C3.99646 4.66865 4.21589 4.625 4.4375 4.625C4.65911 4.625 4.87854 4.66865 5.08328 4.75345C5.28802 4.83826 5.47404 4.96256 5.63074 5.11926C5.78744 5.27596 5.91174 5.46198 5.99655 5.66672C6.08135 5.87146 6.125 6.09089 6.125 6.3125C6.125 6.76005 5.94721 7.18927 5.63074 7.50574C5.31427 7.82221 4.88505 8 4.4375 8C3.98995 8 3.56072 7.82221 3.24426 7.50574C2.92779 7.18927 2.75 6.76005 2.75 6.3125ZM4.4375 5.75C4.28832 5.75 4.14524 5.80926 4.03975 5.91475C3.93426 6.02024 3.875 6.16332 3.875 6.3125C3.875 6.46168 3.93426 6.60476 4.03975 6.71025C4.14524 6.81574 4.28832 6.875 4.4375 6.875C4.58668 6.875 4.72976 6.81574 4.83525 6.71025C4.94074 6.60476 5 6.46168 5 6.3125C5 6.16332 4.94074 6.02024 4.83525 5.91475C4.72976 5.80926 4.58668 5.75 4.4375 5.75ZM4.4375 8.75C3.98995 8.75 3.56072 8.92779 3.24426 9.24426C2.92779 9.56073 2.75 9.98995 2.75 10.4375C2.75 10.8851 2.92779 11.3143 3.24426 11.6307C3.56072 11.9472 3.98995 12.125 4.4375 12.125C4.88505 12.125 5.31427 11.9472 5.63074 11.6307C5.94721 11.3143 6.125 10.8851 6.125 10.4375C6.125 9.98995 5.94721 9.56073 5.63074 9.24426C5.31427 8.92779 4.88505 8.75 4.4375 8.75ZM3.875 10.4375C3.875 10.2883 3.93426 10.1452 4.03975 10.0398C4.14524 9.93426 4.28832 9.875 4.4375 9.875C4.58668 9.875 4.72976 9.93426 4.83525 10.0398C4.94074 10.1452 5 10.2883 5 10.4375C5 10.5867 4.94074 10.7298 4.83525 10.8352C4.72976 10.9407 4.58668 11 4.4375 11C4.28832 11 4.14524 10.9407 4.03975 10.8352C3.93426 10.7298 3.875 10.5867 3.875 10.4375ZM15.5 11.375C15.5 10.281 15.0654 9.23177 14.2918 8.45818C13.5182 7.6846 12.469 7.25 11.375 7.25C10.281 7.25 9.23177 7.6846 8.45818 8.45818C7.6846 9.23177 7.25 10.281 7.25 11.375C7.25 12.469 7.6846 13.5182 8.45818 14.2918C9.23177 15.0654 10.281 15.5 11.375 15.5C12.469 15.5 13.5182 15.0654 14.2918 14.2918C15.0654 13.5182 15.5 12.469 15.5 11.375ZM11.75 11.75L11.7507 13.6273C11.7507 13.7267 11.7112 13.8221 11.6409 13.8924C11.5706 13.9627 11.4752 14.0023 11.3757 14.0023C11.2763 14.0023 11.1809 13.9627 11.1106 13.8924C11.0403 13.8221 11.0007 13.7267 11.0007 13.6273V11.75H9.122C9.02254 11.75 8.92716 11.7105 8.85683 11.6402C8.78651 11.5698 8.747 11.4745 8.747 11.375C8.747 11.2755 8.78651 11.1802 8.85683 11.1098C8.92716 11.0395 9.02254 11 9.122 11H11V9.125C11 9.02554 11.0395 8.93016 11.1098 8.85983C11.1802 8.78951 11.2755 8.75 11.375 8.75C11.4745 8.75 11.5698 8.78951 11.6402 8.85983C11.7105 8.93016 11.75 9.02554 11.75 9.125V11H13.6227C13.7222 11 13.8176 11.0395 13.8879 11.1098C13.9582 11.1802 13.9977 11.2755 13.9977 11.375C13.9977 11.4745 13.9582 11.5698 13.8879 11.6402C13.8176 11.7105 13.7222 11.75 13.6227 11.75H11.75Z" fill="#404243"/>
</svg>
