<svg width="15" height="16" viewBox="0 0 15 16" fill="none" xmlns="http://www.w3.org/2000/svg">
<path fill-rule="evenodd" clip-rule="evenodd" d="M4.03846 0.5C4.19147 0.5 4.33821 0.560783 4.44641 0.668977C4.5546 0.777171 4.61538 0.923914 4.61538 1.07692V1.65385H10.3846V1.07692C10.3846 0.923914 10.4454 0.777171 10.5536 0.668977C10.6618 0.560783 10.8085 0.5 10.9615 0.5C11.1145 0.5 11.2613 0.560783 11.3695 0.668977C11.4777 0.777171 11.5385 0.923914 11.5385 1.07692V1.65385H13.2692C13.7283 1.65385 14.1685 1.83619 14.4931 2.16078C14.8177 2.48536 15 2.92559 15 3.38462V13.7692C15 14.2283 14.8177 14.6685 14.4931 14.9931C14.1685 15.3177 13.7283 15.5 13.2692 15.5H1.73077C1.27174 15.5 0.831513 15.3177 0.506931 14.9931C0.182348 14.6685 0 14.2283 0 13.7692V3.38462C0 2.92559 0.182348 2.48536 0.506931 2.16078C0.831513 1.83619 1.27174 1.65385 1.73077 1.65385H3.46154V1.07692C3.46154 0.923914 3.52232 0.777171 3.63052 0.668977C3.73871 0.560783 3.88545 0.5 4.03846 0.5ZM10.3846 2.80769V3.38462C10.3846 3.53762 10.4454 3.68437 10.5536 3.79256C10.6618 3.90076 10.8085 3.96154 10.9615 3.96154C11.1145 3.96154 11.2613 3.90076 11.3695 3.79256C11.4777 3.68437 11.5385 3.53762 11.5385 3.38462V2.80769H13.2692C13.4222 2.80769 13.569 2.86848 13.6772 2.97667C13.7854 3.08486 13.8462 3.23161 13.8462 3.38462V5.11538H1.15385V3.38462C1.15385 3.23161 1.21463 3.08486 1.32282 2.97667C1.43102 2.86848 1.57776 2.80769 1.73077 2.80769H3.46154V3.38462C3.46154 3.53762 3.52232 3.68437 3.63052 3.79256C3.73871 3.90076 3.88545 3.96154 4.03846 3.96154C4.19147 3.96154 4.33821 3.90076 4.44641 3.79256C4.5546 3.68437 4.61538 3.53762 4.61538 3.38462V2.80769H10.3846ZM1.15385 6.26923V13.7692C1.15385 13.9222 1.21463 14.069 1.32282 14.1772C1.43102 14.2854 1.57776 14.3462 1.73077 14.3462H13.2692C13.4222 14.3462 13.569 14.2854 13.6772 14.1772C13.7854 14.069 13.8462 13.9222 13.8462 13.7692V6.26923H1.15385ZM6.92308 8C6.92308 7.84699 6.98386 7.70025 7.09205 7.59205C7.20025 7.48386 7.34699 7.42308 7.5 7.42308C7.65301 7.42308 7.79975 7.48386 7.90795 7.59205C8.01614 7.70025 8.07692 7.84699 8.07692 8C8.07692 8.15301 8.01614 8.29975 7.90795 8.40795C7.79975 8.51614 7.65301 8.57692 7.5 8.57692C7.34699 8.57692 7.20025 8.51614 7.09205 8.40795C6.98386 8.29975 6.92308 8.15301 6.92308 8ZM9.80769 7.42308C9.65468 7.42308 9.50794 7.48386 9.39975 7.59205C9.29155 7.70025 9.23077 7.84699 9.23077 8C9.23077 8.15301 9.29155 8.29975 9.39975 8.40795C9.50794 8.51614 9.65468 8.57692 9.80769 8.57692C9.9607 8.57692 10.1074 8.51614 10.2156 8.40795C10.3238 8.29975 10.3846 8.15301 10.3846 8C10.3846 7.84699 10.3238 7.70025 10.2156 7.59205C10.1074 7.48386 9.9607 7.42308 9.80769 7.42308ZM11.5385 8C11.5385 7.84699 11.5992 7.70025 11.7074 7.59205C11.8156 7.48386 11.9624 7.42308 12.1154 7.42308C12.2684 7.42308 12.4151 7.48386 12.5233 7.59205C12.6315 7.70025 12.6923 7.84699 12.6923 8C12.6923 8.15301 12.6315 8.29975 12.5233 8.40795C12.4151 8.51614 12.2684 8.57692 12.1154 8.57692C11.9624 8.57692 11.8156 8.51614 11.7074 8.40795C11.5992 8.29975 11.5385 8.15301 11.5385 8ZM12.1154 9.73077C11.9624 9.73077 11.8156 9.79155 11.7074 9.89975C11.5992 10.0079 11.5385 10.1547 11.5385 10.3077C11.5385 10.4607 11.5992 10.6074 11.7074 10.7156C11.8156 10.8238 11.9624 10.8846 12.1154 10.8846C12.2684 10.8846 12.4151 10.8238 12.5233 10.7156C12.6315 10.6074 12.6923 10.4607 12.6923 10.3077C12.6923 10.1547 12.6315 10.0079 12.5233 9.89975C12.4151 9.79155 12.2684 9.73077 12.1154 9.73077ZM9.23077 10.3077C9.23077 10.1547 9.29155 10.0079 9.39975 9.89975C9.50794 9.79155 9.65468 9.73077 9.80769 9.73077C9.9607 9.73077 10.1074 9.79155 10.2156 9.89975C10.3238 10.0079 10.3846 10.1547 10.3846 10.3077C10.3846 10.4607 10.3238 10.6074 10.2156 10.7156C10.1074 10.8238 9.9607 10.8846 9.80769 10.8846C9.65468 10.8846 9.50794 10.8238 9.39975 10.7156C9.29155 10.6074 9.23077 10.4607 9.23077 10.3077ZM7.5 9.73077C7.34699 9.73077 7.20025 9.79155 7.09205 9.89975C6.98386 10.0079 6.92308 10.1547 6.92308 10.3077C6.92308 10.4607 6.98386 10.6074 7.09205 10.7156C7.20025 10.8238 7.34699 10.8846 7.5 10.8846C7.65301 10.8846 7.79975 10.8238 7.90795 10.7156C8.01614 10.6074 8.07692 10.4607 8.07692 10.3077C8.07692 10.1547 8.01614 10.0079 7.90795 9.89975C7.79975 9.79155 7.65301 9.73077 7.5 9.73077ZM4.61538 10.3077C4.61538 10.1547 4.67617 10.0079 4.78436 9.89975C4.89256 9.79155 5.0393 9.73077 5.19231 9.73077C5.34532 9.73077 5.49206 9.79155 5.60025 9.89975C5.70845 10.0079 5.76923 10.1547 5.76923 10.3077C5.76923 10.4607 5.70845 10.6074 5.60025 10.7156C5.49206 10.8238 5.34532 10.8846 5.19231 10.8846C5.0393 10.8846 4.89256 10.8238 4.78436 10.7156C4.67617 10.6074 4.61538 10.4607 4.61538 10.3077ZM2.88462 9.73077C2.73161 9.73077 2.58486 9.79155 2.47667 9.89975C2.36848 10.0079 2.30769 10.1547 2.30769 10.3077C2.30769 10.4607 2.36848 10.6074 2.47667 10.7156C2.58486 10.8238 2.73161 10.8846 2.88462 10.8846C3.03762 10.8846 3.18437 10.8238 3.29256 10.7156C3.40076 10.6074 3.46154 10.4607 3.46154 10.3077C3.46154 10.1547 3.40076 10.0079 3.29256 9.89975C3.18437 9.79155 3.03762 9.73077 2.88462 9.73077ZM2.30769 12.6154C2.30769 12.4624 2.36848 12.3156 2.47667 12.2074C2.58486 12.0992 2.73161 12.0385 2.88462 12.0385C3.03762 12.0385 3.18437 12.0992 3.29256 12.2074C3.40076 12.3156 3.46154 12.4624 3.46154 12.6154C3.46154 12.7684 3.40076 12.9151 3.29256 13.0233C3.18437 13.1315 3.03762 13.1923 2.88462 13.1923C2.73161 13.1923 2.58486 13.1315 2.47667 13.0233C2.36848 12.9151 2.30769 12.7684 2.30769 12.6154ZM5.19231 12.0385C5.0393 12.0385 4.89256 12.0992 4.78436 12.2074C4.67617 12.3156 4.61538 12.4624 4.61538 12.6154C4.61538 12.7684 4.67617 12.9151 4.78436 13.0233C4.89256 13.1315 5.0393 13.1923 5.19231 13.1923C5.34532 13.1923 5.49206 13.1315 5.60025 13.0233C5.70845 12.9151 5.76923 12.7684 5.76923 12.6154C5.76923 12.4624 5.70845 12.3156 5.60025 12.2074C5.49206 12.0992 5.34532 12.0385 5.19231 12.0385ZM6.92308 12.6154C6.92308 12.4624 6.98386 12.3156 7.09205 12.2074C7.20025 12.0992 7.34699 12.0385 7.5 12.0385C7.65301 12.0385 7.79975 12.0992 7.90795 12.2074C8.01614 12.3156 8.07692 12.4624 8.07692 12.6154C8.07692 12.7684 8.01614 12.9151 7.90795 13.0233C7.79975 13.1315 7.65301 13.1923 7.5 13.1923C7.34699 13.1923 7.20025 13.1315 7.09205 13.0233C6.98386 12.9151 6.92308 12.7684 6.92308 12.6154ZM9.80769 12.0385C9.65468 12.0385 9.50794 12.0992 9.39975 12.2074C9.29155 12.3156 9.23077 12.4624 9.23077 12.6154C9.23077 12.7684 9.29155 12.9151 9.39975 13.0233C9.50794 13.1315 9.65468 13.1923 9.80769 13.1923C9.9607 13.1923 10.1074 13.1315 10.2156 13.0233C10.3238 12.9151 10.3846 12.7684 10.3846 12.6154C10.3846 12.4624 10.3238 12.3156 10.2156 12.2074C10.1074 12.0992 9.9607 12.0385 9.80769 12.0385Z" fill="#404243"/>
</svg>
