<svg width="11" height="16" viewBox="0 0 11 16" fill="none" xmlns="http://www.w3.org/2000/svg">
<path d="M4.58333 6.59375C4.58333 6.46943 4.63162 6.3502 4.71758 6.26229C4.80353 6.17439 4.92011 6.125 5.04167 6.125H8.25C8.37156 6.125 8.48814 6.17439 8.57409 6.26229C8.66005 6.3502 8.70833 6.46943 8.70833 6.59375C8.70833 6.71807 8.66005 6.8373 8.57409 6.92521C8.48814 7.01311 8.37156 7.0625 8.25 7.0625H5.04167C4.92011 7.0625 4.80353 7.01311 4.71758 6.92521C4.63162 6.8373 4.58333 6.71807 4.58333 6.59375ZM4.58333 9.40625C4.58333 9.28193 4.63162 9.1627 4.71758 9.07479C4.80353 8.98689 4.92011 8.9375 5.04167 8.9375H8.25C8.37156 8.9375 8.48814 8.98689 8.57409 9.07479C8.66005 9.1627 8.70833 9.28193 8.70833 9.40625C8.70833 9.53057 8.66005 9.6498 8.57409 9.73771C8.48814 9.82561 8.37156 9.875 8.25 9.875H5.04167C4.92011 9.875 4.80353 9.82561 4.71758 9.73771C4.63162 9.6498 4.58333 9.53057 4.58333 9.40625ZM4.58333 12.2188C4.58333 12.0944 4.63162 11.9752 4.71758 11.8873C4.80353 11.7994 4.92011 11.75 5.04167 11.75H8.25C8.37156 11.75 8.48814 11.7994 8.57409 11.8873C8.66005 11.9752 8.70833 12.0944 8.70833 12.2188C8.70833 12.3431 8.66005 12.4623 8.57409 12.5502C8.48814 12.6381 8.37156 12.6875 8.25 12.6875H5.04167C4.92011 12.6875 4.80353 12.6381 4.71758 12.5502C4.63162 12.4623 4.58333 12.3431 4.58333 12.2188ZM3.66667 6.59375C3.66667 6.78023 3.59423 6.95907 3.4653 7.09093C3.33637 7.2228 3.1615 7.29688 2.97917 7.29688C2.79683 7.29688 2.62196 7.2228 2.49303 7.09093C2.3641 6.95907 2.29167 6.78023 2.29167 6.59375C2.29167 6.40727 2.3641 6.22843 2.49303 6.09657C2.62196 5.9647 2.79683 5.89062 2.97917 5.89062C3.1615 5.89062 3.33637 5.9647 3.4653 6.09657C3.59423 6.22843 3.66667 6.40727 3.66667 6.59375ZM3.66667 9.40625C3.66667 9.59273 3.59423 9.77157 3.4653 9.90343C3.33637 10.0353 3.1615 10.1094 2.97917 10.1094C2.79683 10.1094 2.62196 10.0353 2.49303 9.90343C2.3641 9.77157 2.29167 9.59273 2.29167 9.40625C2.29167 9.21977 2.3641 9.04093 2.49303 8.90907C2.62196 8.7772 2.79683 8.70312 2.97917 8.70312C3.1615 8.70312 3.33637 8.7772 3.4653 8.90907C3.59423 9.04093 3.66667 9.21977 3.66667 9.40625ZM2.97917 12.9219C3.1615 12.9219 3.33637 12.8478 3.4653 12.7159C3.59423 12.5841 3.66667 12.4052 3.66667 12.2188C3.66667 12.0323 3.59423 11.8534 3.4653 11.7216C3.33637 11.5897 3.1615 11.5156 2.97917 11.5156C2.79683 11.5156 2.62196 11.5897 2.49303 11.7216C2.3641 11.8534 2.29167 12.0323 2.29167 12.2188C2.29167 12.4052 2.3641 12.5841 2.49303 12.7159C2.62196 12.8478 2.79683 12.9219 2.97917 12.9219ZM2.82792 1.4375C2.92274 1.16321 3.09841 0.925746 3.33072 0.757839C3.56302 0.589932 3.84053 0.499848 4.125 0.5H6.875C7.15947 0.499848 7.43698 0.589932 7.66928 0.757839C7.90159 0.925746 8.07726 1.16321 8.17208 1.4375H9.625C9.98967 1.4375 10.3394 1.58566 10.5973 1.84938C10.8551 2.1131 11 2.47079 11 2.84375V14.0938C11 14.4667 10.8551 14.8244 10.5973 15.0881C10.3394 15.3518 9.98967 15.5 9.625 15.5H1.375C1.01033 15.5 0.660591 15.3518 0.402728 15.0881C0.144865 14.8244 0 14.4667 0 14.0938V2.84375C0 2.47079 0.144865 2.1131 0.402728 1.84938C0.660591 1.58566 1.01033 1.4375 1.375 1.4375H2.82792ZM4.125 1.4375C4.00344 1.4375 3.88686 1.48689 3.80091 1.57479C3.71495 1.6627 3.66667 1.78193 3.66667 1.90625C3.66667 2.03057 3.71495 2.1498 3.80091 2.23771C3.88686 2.32561 4.00344 2.375 4.125 2.375H6.875C6.99656 2.375 7.11314 2.32561 7.19909 2.23771C7.28505 2.1498 7.33333 2.03057 7.33333 1.90625C7.33333 1.78193 7.28505 1.6627 7.19909 1.57479C7.11314 1.48689 6.99656 1.4375 6.875 1.4375H4.125ZM2.82792 2.375H1.375C1.25344 2.375 1.13686 2.42439 1.05091 2.51229C0.964955 2.6002 0.916667 2.71943 0.916667 2.84375V14.0938C0.916667 14.2181 0.964955 14.3373 1.05091 14.4252C1.13686 14.5131 1.25344 14.5625 1.375 14.5625H9.625C9.74656 14.5625 9.86314 14.5131 9.94909 14.4252C10.035 14.3373 10.0833 14.2181 10.0833 14.0938V2.84375C10.0833 2.71943 10.035 2.6002 9.94909 2.51229C9.86314 2.42439 9.74656 2.375 9.625 2.375H8.17208C8.07726 2.64929 7.90159 2.88675 7.66928 3.05466C7.43698 3.22257 7.15947 3.31265 6.875 3.3125H4.125C3.84053 3.31265 3.56302 3.22257 3.33072 3.05466C3.09841 2.88675 2.92274 2.64929 2.82792 2.375Z" fill="#404243"/>
</svg>
