<svg width="12" height="16" viewBox="0 0 12 16" fill="none" xmlns="http://www.w3.org/2000/svg">
<path d="M1.59375 1.4375C1.4197 1.4375 1.25278 1.50664 1.12971 1.62971C1.00664 1.75278 0.9375 1.9197 0.9375 2.09375V14.5625H2.25V12.5938C2.25 12.37 2.33889 12.1554 2.49713 11.9971C2.65536 11.8389 2.86997 11.75 3.09375 11.75H8.90625C9.13003 11.75 9.34464 11.8389 9.50287 11.9971C9.66111 12.1554 9.75 12.37 9.75 12.5938V14.5625H11.0625V7.71875C11.0625 7.5447 10.9934 7.37778 10.8703 7.25471C10.7472 7.13164 10.5803 7.0625 10.4062 7.0625H8.53125C8.2725 7.0625 8.0625 6.8525 8.0625 6.59375V2.09375C8.0625 2.00757 8.04553 1.92223 8.01255 1.84261C7.97957 1.76299 7.93123 1.69065 7.87029 1.62971C7.80935 1.56877 7.73701 1.52043 7.65739 1.48745C7.57777 1.45447 7.49243 1.4375 7.40625 1.4375H1.59375ZM0.46875 15.5C0.21 15.5 0 15.29 0 15.0312V2.09375C0 1.67106 0.167912 1.26568 0.466798 0.966799C0.765685 0.667912 1.17106 0.5 1.59375 0.5H7.40625C7.82894 0.5 8.23431 0.667912 8.5332 0.966799C8.83209 1.26568 9 1.67106 9 2.09375V6.125H10.4062C10.8289 6.125 11.2343 6.29291 11.5332 6.5918C11.8321 6.89069 12 7.29606 12 7.71875V15.0312C12 15.29 11.79 15.5 11.5312 15.5H0.46875ZM3.1875 14.5625H5.53125V12.6875H3.1875V14.5625ZM6.46875 14.5625H8.8125V12.6875H6.46875V14.5625ZM3.75 4.25C3.75 4.44891 3.67098 4.63968 3.53033 4.78033C3.38968 4.92098 3.19891 5 3 5C2.80109 5 2.61032 4.92098 2.46967 4.78033C2.32902 4.63968 2.25 4.44891 2.25 4.25C2.25 4.05109 2.32902 3.86032 2.46967 3.71967C2.61032 3.57902 2.80109 3.5 3 3.5C3.19891 3.5 3.38968 3.57902 3.53033 3.71967C3.67098 3.86032 3.75 4.05109 3.75 4.25ZM3 7.625C3.19891 7.625 3.38968 7.54598 3.53033 7.40533C3.67098 7.26468 3.75 7.07391 3.75 6.875C3.75 6.67609 3.67098 6.48532 3.53033 6.34467C3.38968 6.20402 3.19891 6.125 3 6.125C2.80109 6.125 2.61032 6.20402 2.46967 6.34467C2.32902 6.48532 2.25 6.67609 2.25 6.875C2.25 7.07391 2.32902 7.26468 2.46967 7.40533C2.61032 7.54598 2.80109 7.625 3 7.625ZM3.75 9.5C3.75 9.69891 3.67098 9.88968 3.53033 10.0303C3.38968 10.171 3.19891 10.25 3 10.25C2.80109 10.25 2.61032 10.171 2.46967 10.0303C2.32902 9.88968 2.25 9.69891 2.25 9.5C2.25 9.30109 2.32902 9.11032 2.46967 8.96967C2.61032 8.82902 2.80109 8.75 3 8.75C3.19891 8.75 3.38968 8.82902 3.53033 8.96967C3.67098 9.11032 3.75 9.30109 3.75 9.5ZM6 5C6.19891 5 6.38968 4.92098 6.53033 4.78033C6.67098 4.63968 6.75 4.44891 6.75 4.25C6.75 4.05109 6.67098 3.86032 6.53033 3.71967C6.38968 3.57902 6.19891 3.5 6 3.5C5.80109 3.5 5.61032 3.57902 5.46967 3.71967C5.32902 3.86032 5.25 4.05109 5.25 4.25C5.25 4.44891 5.32902 4.63968 5.46967 4.78033C5.61032 4.92098 5.80109 5 6 5ZM6.75 6.875C6.75 7.07391 6.67098 7.26468 6.53033 7.40533C6.38968 7.54598 6.19891 7.625 6 7.625C5.80109 7.625 5.61032 7.54598 5.46967 7.40533C5.32902 7.26468 5.25 7.07391 5.25 6.875C5.25 6.67609 5.32902 6.48532 5.46967 6.34467C5.61032 6.20402 5.80109 6.125 6 6.125C6.19891 6.125 6.38968 6.20402 6.53033 6.34467C6.67098 6.48532 6.75 6.67609 6.75 6.875ZM6 10.25C6.19891 10.25 6.38968 10.171 6.53033 10.0303C6.67098 9.88968 6.75 9.69891 6.75 9.5C6.75 9.30109 6.67098 9.11032 6.53033 8.96967C6.38968 8.82902 6.19891 8.75 6 8.75C5.80109 8.75 5.61032 8.82902 5.46967 8.96967C5.32902 9.11032 5.25 9.30109 5.25 9.5C5.25 9.69891 5.32902 9.88968 5.46967 10.0303C5.61032 10.171 5.80109 10.25 6 10.25ZM9.75 9.5C9.75 9.69891 9.67098 9.88968 9.53033 10.0303C9.38968 10.171 9.19891 10.25 9 10.25C8.80109 10.25 8.61032 10.171 8.46967 10.0303C8.32902 9.88968 8.25 9.69891 8.25 9.5C8.25 9.30109 8.32902 9.11032 8.46967 8.96967C8.61032 8.82902 8.80109 8.75 9 8.75C9.19891 8.75 9.38968 8.82902 9.53033 8.96967C9.67098 9.11032 9.75 9.30109 9.75 9.5Z" fill="#404243"/>
</svg>
