<svg width="22" height="30" viewBox="0 0 22 30" fill="none" xmlns="http://www.w3.org/2000/svg">
<g clip-path="url(#clip0_901_3634)">
<path d="M1.0048 23.6422C4.43214 23.78 8.69807 23.0586 11.0474 20.8898C11.0497 20.8878 11.0523 20.8853 11.0544 20.8835C11.115 20.8291 10.9128 20.7169 10.8678 20.7093C10.7239 20.6848 10.5719 20.8381 10.4669 20.9037C10.1863 21.0794 9.89487 21.2438 9.59411 21.3971C8.99261 21.7036 8.35383 21.9645 7.69021 22.1765C6.19472 22.654 4.63376 22.83 3.02983 22.8453C2.4291 22.8462 1.81931 22.8153 1.21237 22.7607C5.01967 21.978 9.24367 20.7077 11.1023 18.7403C12.2147 19.0196 14.2175 19.5201 15.3017 19.7751C15.3017 19.7751 15.3022 19.7755 15.3027 19.7763C15.303 19.7767 15.3035 19.7771 15.304 19.7778C15.304 19.7778 15.3043 19.778 15.3045 19.7786C15.3441 19.8548 17.7665 24.561 13.1912 29.9207C10.6447 30.3341 7.6004 29.0116 7.05661 28.7622C7.00096 28.7366 6.97145 28.7223 6.97145 28.7223C7.12571 28.7975 8.40042 28.0367 8.57745 27.9412C9.07336 27.6734 9.55089 27.3831 10.0082 27.0753C10.9685 26.4292 11.8391 25.6962 12.5571 24.8757C13.6167 23.6651 14.3396 22.2561 14.5105 20.7905C14.3909 20.7011 14.1771 20.7625 14.0953 20.8753C13.939 21.0912 13.9649 21.4225 13.8668 21.6644C13.7464 21.9608 13.6072 22.2524 13.4493 22.5378C13.1421 23.0936 12.7657 23.6256 12.3294 24.1243C11.3694 25.221 10.1226 26.1072 8.72265 26.8416C8.52543 26.9449 8.3251 27.0451 8.12218 27.1424C7.56701 27.4082 6.99294 27.6491 6.41421 27.8646C6.1396 27.9668 5.86343 28.0635 5.5883 28.1545C5.08204 27.8905 4.57449 27.5795 4.04934 27.2473C4.1847 27.2011 4.31877 27.1536 4.45155 27.1052C4.91976 26.9345 5.37115 26.751 5.79821 26.5615C7.35425 25.8622 8.77727 25.0035 9.7683 23.808C9.64044 23.7751 9.51284 23.7421 9.38498 23.7092C8.45581 24.4069 7.31983 24.9055 6.12769 25.2646C4.9327 25.6244 3.70872 25.7635 2.48035 26.0074C2.47931 26.0076 2.47802 26.0076 2.47672 26.0078C2.40814 26.016 2.33903 26.0172 2.27096 26.0115C2.2707 26.0115 2.27044 26.0117 2.27018 26.0117C2.26967 26.0115 2.26915 26.0115 2.26889 26.0113C2.05018 25.9665 0.610865 25.0859 -0.000476157 23.5798C0.33263 23.6072 0.668324 23.6285 1.00428 23.6419L1.0048 23.6422Z" fill="#404243"/>
<path d="M15.7522 18.4821C15.651 18.7377 15.3068 18.88 14.9835 18.8L12.1284 18.0946C11.8049 18.0147 11.6248 17.7427 11.726 17.4873C11.8272 17.2318 12.1714 17.0895 12.4947 17.1694L15.3498 17.8748C15.6733 17.9548 15.8534 18.2267 15.7522 18.4821Z" fill="#404243"/>
<path d="M13.9625 16.5168L19.411 0.767017C19.419 0.743708 19.4293 0.717946 19.4397 0.694636C19.6817 0.152803 20.4346 -0.131404 21.1207 0.0599755C21.8066 0.251355 22.1669 0.845941 21.9244 1.38818L15.0415 16.7834L13.9625 16.5168V16.5168Z" fill="#404243"/>
</g>
<defs>
<clipPath id="clip0_901_3634">
<rect width="22" height="30" fill="white" transform="matrix(-1 0 0 1 22 0)"/>
</clipPath>
</defs>
</svg>
