<svg width="18" height="16" viewBox="0 0 18 16" fill="none" xmlns="http://www.w3.org/2000/svg">
<path d="M7.3 7.16667C9.1785 7.16667 10.7 5.675 10.7 3.83333C10.7 1.99167 9.1785 0.5 7.3 0.5C5.4215 0.5 3.9 1.99167 3.9 3.83333C3.9 5.675 5.4215 7.16667 7.3 7.16667ZM7.3 2.16667C8.235 2.16667 9 2.91667 9 3.83333C9 4.75 8.235 5.5 7.3 5.5C6.365 5.5 5.6 4.75 5.6 3.83333C5.6 2.91667 6.365 2.16667 7.3 2.16667ZM2.2 12.1667C2.387 11.5667 5.0135 10.5 7.3 10.5C7.3 9.91667 7.4105 9.35833 7.5975 8.84167C5.277 8.75833 0.5 9.89167 0.5 12.1667V13.8333H8.609C8.167 13.35 7.8185 12.7917 7.5975 12.1667H2.2ZM15.3155 12.1833C15.6215 11.6917 15.8 11.1167 15.8 10.5C15.8 8.65833 14.2785 7.16667 12.4 7.16667C10.5215 7.16667 9 8.65833 9 10.5C9 12.3417 10.5215 13.8333 12.4 13.8333C13.029 13.8333 13.6155 13.65 14.117 13.3583L16.3015 15.5L17.5 14.325C16.225 13.075 16.8285 13.6583 15.3155 12.1833ZM12.4 12.1667C11.465 12.1667 10.7 11.4167 10.7 10.5C10.7 9.58333 11.465 8.83333 12.4 8.83333C13.335 8.83333 14.1 9.58333 14.1 10.5C14.1 11.4167 13.335 12.1667 12.4 12.1667Z" fill="#404243"/>
</svg>
