<svg width="15" height="15" viewBox="0 0 15 15" fill="none" xmlns="http://www.w3.org/2000/svg">
<path d="M6.79688 4.97344C6.64688 5.14594 6.5625 5.38406 6.5625 5.62312C6.5625 5.74744 6.51312 5.86667 6.42521 5.95458C6.3373 6.04249 6.21807 6.09187 6.09375 6.09187C5.96943 6.09187 5.8502 6.04249 5.7623 5.95458C5.67439 5.86667 5.625 5.74744 5.625 5.62312C5.625 5.17969 5.77594 4.71375 6.09375 4.35375C6.41907 3.98438 6.9 3.74813 7.5 3.74813C8.1 3.74813 8.58094 3.98438 8.90625 4.35375C9.22406 4.71469 9.375 5.17875 9.375 5.62312C9.375 6.0825 9.26625 6.43875 9.09188 6.73875C8.93906 7.00031 8.73938 7.2075 8.58094 7.37344L8.54156 7.41375C8.36719 7.59656 8.23313 7.74562 8.13469 7.93312C8.04094 8.11219 7.96875 8.34937 7.96875 8.71031C7.96875 8.83463 7.91937 8.95386 7.83146 9.04177C7.74355 9.12967 7.62432 9.17906 7.5 9.17906C7.37568 9.17906 7.25645 9.12967 7.16855 9.04177C7.08064 8.95386 7.03125 8.83463 7.03125 8.71031C7.03125 8.21156 7.13438 7.8225 7.30407 7.49812C7.47 7.18219 7.68844 6.95062 7.86469 6.76594L7.88531 6.74437C8.06156 6.55969 8.18719 6.42844 8.28188 6.26625C8.37094 6.11344 8.4375 5.92031 8.4375 5.62312C8.4375 5.38406 8.35406 5.145 8.20313 4.97344C8.05969 4.81125 7.8375 4.68563 7.5 4.68563C7.1625 4.68563 6.94032 4.81125 6.79688 4.97344ZM7.5 11.4469C7.58821 11.4502 7.67618 11.4357 7.75865 11.4043C7.84112 11.3728 7.9164 11.325 7.97999 11.2638C8.04357 11.2026 8.09415 11.1292 8.1287 11.0479C8.16324 10.9667 8.18105 10.8794 8.18105 10.7911C8.18105 10.7028 8.16324 10.6155 8.1287 10.5342C8.09415 10.453 8.04357 10.3796 7.97999 10.3184C7.9164 10.2571 7.84112 10.2094 7.75865 10.1779C7.67618 10.1465 7.58821 10.132 7.5 10.1353C7.32595 10.1353 7.15903 10.2044 7.03596 10.3275C6.91289 10.4506 6.84375 10.6175 6.84375 10.7916C6.84375 10.9656 6.91289 11.1325 7.03596 11.2556C7.15903 11.3787 7.32595 11.4478 7.5 11.4478V11.4469ZM8.05774e-06 7.49812C0.000417368 5.85921 0.537657 4.26554 1.52956 2.96087C2.52146 1.65619 3.91341 0.712336 5.49253 0.273658C7.07164 -0.165019 8.75098 -0.0743691 10.2737 0.531745C11.7964 1.13786 13.0787 2.22607 13.9244 3.62994C14.7701 5.0338 15.1326 6.67604 14.9566 8.30548C14.7806 9.93491 14.0757 11.4618 12.9497 12.6527C11.8237 13.8436 10.3387 14.6329 8.72162 14.8998C7.10459 15.1668 5.44464 14.8967 3.99563 14.1309L0.583133 14.9841C0.504594 15.0038 0.422281 15.0029 0.344215 14.9813C0.26615 14.9598 0.194995 14.9184 0.137685 14.8612C0.0803754 14.804 0.0388661 14.7329 0.0172023 14.6548C-0.00446136 14.5768 -0.00554028 14.4945 0.0140706 14.4159L0.867195 11.0025C0.295971 9.92284 -0.00178582 8.71958 8.05774e-06 7.49812ZM7.5 0.935628C6.35473 0.935279 5.22931 1.23465 4.23559 1.804C3.24186 2.37335 2.41444 3.19285 1.83555 4.18104C1.25666 5.16924 0.946467 6.29173 0.935791 7.43695C0.925114 8.58217 1.21433 9.71024 1.77469 10.7091C1.83355 10.8133 1.85032 10.936 1.82157 11.0522L1.11282 13.8853L3.94594 13.1766C4.06211 13.1478 4.18487 13.1646 4.28907 13.2234C5.164 13.7136 6.13962 13.9967 7.14102 14.051C8.14241 14.1053 9.14293 13.9294 10.0657 13.5367C10.9886 13.1441 11.8091 12.5452 12.4644 11.786C13.1196 11.0268 13.5922 10.1275 13.8457 9.15726C14.0993 8.18698 14.1271 7.17149 13.927 6.18878C13.7269 5.20608 13.3042 4.28231 12.6915 3.48841C12.0787 2.69451 11.2922 2.05161 10.3922 1.60909C9.49227 1.16656 8.50287 0.936174 7.5 0.935628Z" fill="#19607c"/>
</svg>
