<svg width="18" height="16" viewBox="0 0 18 16" fill="none" xmlns="http://www.w3.org/2000/svg">
<path d="M4.53261 13.3033C5.75965 14.5303 7.37422 15.2939 9.10118 15.4639C10.8281 15.6339 12.5606 15.1998 14.0034 14.2356C15.4461 13.2714 16.5099 11.8367 17.0133 10.176C17.5168 8.51534 17.4288 6.73147 16.7644 5.1284C16.1 3.52533 14.9003 2.20225 13.3696 1.38465C11.839 0.567043 10.0722 0.305503 8.37037 0.644599C6.66851 0.983694 5.13691 1.90244 4.03655 3.24427C2.93619 4.5861 2.33518 6.26798 2.33594 8.00328V9.66662" stroke="#404243" stroke-linecap="round" stroke-linejoin="round"/>
<path d="M0.667969 8.0013L2.33464 9.66797L4.0013 8.0013M9.0013 4.66797V8.83464H13.168" stroke="#404243" stroke-linecap="round" stroke-linejoin="round"/>
</svg>
