<svg width="18" height="16" viewBox="0 0 18 16" fill="none" xmlns="http://www.w3.org/2000/svg">
<path d="M17 14.5H16.1667V1C16.1667 0.867392 16.114 0.740215 16.0202 0.646447C15.9265 0.552678 15.7993 0.5 15.6667 0.5H11C10.8674 0.5 10.7402 0.552678 10.6464 0.646447C10.5527 0.740215 10.5 0.867392 10.5 1V4.5H6.33333C6.20073 4.5 6.07355 4.55268 5.97978 4.64645C5.88601 4.74022 5.83333 4.86739 5.83333 5V8.5H2.33333C2.20073 8.5 2.07355 8.55268 1.97978 8.64645C1.88601 8.74021 1.83333 8.86739 1.83333 9V14.5H1C0.867392 14.5 0.740215 14.5527 0.646447 14.6464C0.552678 14.7402 0.5 14.8674 0.5 15C0.5 15.1326 0.552678 15.2598 0.646447 15.3536C0.740215 15.4473 0.867392 15.5 1 15.5H17C17.1326 15.5 17.2598 15.4473 17.3536 15.3536C17.4473 15.2598 17.5 15.1326 17.5 15C17.5 14.8674 17.4473 14.7402 17.3536 14.6464C17.2598 14.5527 17.1326 14.5 17 14.5ZM11.5 1.5H15.1667V14.5H11.5V1.5ZM6.83333 5.5H10.5V14.5H6.83333V5.5ZM2.83333 9.5H5.83333V14.5H2.83333V9.5Z" fill="#404243"/>
</svg>
