<svg width="20" height="14" viewBox="0 0 20 14" fill="none" xmlns="http://www.w3.org/2000/svg">
<path d="M1.5 1.5V12.5M1.5 8.5H18.5M18.5 12.5V4.5C18.5 3.96957 18.301 3.46086 17.9468 3.08579C17.5925 2.71071 17.1121 2.5 16.6111 2.5H9.05556V8.5M4.33333 4.5C4.33333 4.76522 4.43284 5.01957 4.60995 5.20711C4.78707 5.39464 5.0273 5.5 5.27778 5.5C5.52826 5.5 5.76848 5.39464 5.9456 5.20711C6.12272 5.01957 6.22222 4.76522 6.22222 4.5C6.22222 4.23478 6.12272 3.98043 5.9456 3.79289C5.76848 3.60536 5.52826 3.5 5.27778 3.5C5.0273 3.5 4.78707 3.60536 4.60995 3.79289C4.43284 3.98043 4.33333 4.23478 4.33333 4.5Z" stroke="#404243" stroke-width="1.3" stroke-linecap="round" stroke-linejoin="round"/>
</svg>
