<svg width="19" height="20" viewBox="0 0 19 20" fill="none" xmlns="http://www.w3.org/2000/svg">
<path d="M18.21 17.2881L14.81 13.8981C15.907 12.5005 16.5022 10.7747 16.5 8.99805C16.5 7.4158 16.0308 5.86908 15.1518 4.55349C14.2727 3.2379 13.0233 2.21252 11.5615 1.60701C10.0997 1.00151 8.49113 0.843086 6.93928 1.15177C5.38743 1.46045 3.96197 2.22238 2.84315 3.3412C1.72433 4.46002 0.962403 5.88548 0.653721 7.43733C0.34504 8.98918 0.503466 10.5977 1.10897 12.0595C1.71447 13.5213 2.73985 14.7708 4.05544 15.6498C5.37103 16.5289 6.91775 16.9981 8.5 16.9981C10.2767 17.0003 12.0025 16.405 13.4 15.3081L16.79 18.708C16.883 18.8018 16.9936 18.8762 17.1154 18.9269C17.2373 18.9777 17.368 19.0038 17.5 19.0038C17.632 19.0038 17.7627 18.9777 17.8846 18.9269C18.0064 18.8762 18.117 18.8018 18.21 18.708C18.3037 18.6151 18.3781 18.5045 18.4289 18.3826C18.4797 18.2608 18.5058 18.1301 18.5058 17.9981C18.5058 17.866 18.4797 17.7353 18.4289 17.6135C18.3781 17.4916 18.3037 17.381 18.21 17.2881ZM2.5 8.99805C2.5 7.81136 2.8519 6.65132 3.51119 5.66463C4.17047 4.67793 5.10755 3.9089 6.2039 3.45477C7.30026 3.00065 8.50666 2.88183 9.67055 3.11334C10.8344 3.34485 11.9035 3.91629 12.7426 4.75541C13.5818 5.59452 14.1532 6.66362 14.3847 7.82751C14.6162 8.99139 14.4974 10.1978 14.0433 11.2942C13.5892 12.3905 12.8201 13.3276 11.8334 13.9869C10.8467 14.6462 9.68669 14.9981 8.5 14.9981C6.9087 14.9981 5.38258 14.3659 4.25736 13.2407C3.13214 12.1155 2.5 10.5893 2.5 8.99805Z" fill="black"/>
</svg>
