<svg width="16" height="16" viewBox="0 0 16 16" fill="none" xmlns="http://www.w3.org/2000/svg">
<path d="M6.45687 4.3475C6.54489 4.25948 6.59434 4.1401 6.59434 4.01562C6.59434 3.89115 6.54489 3.77177 6.45687 3.68375C6.36886 3.59573 6.24948 3.54628 6.125 3.54628C6.00052 3.54628 5.88114 3.59573 5.79313 3.68375L4.46938 5.0075L4.09719 4.66813C4.00471 4.58908 3.88513 4.54909 3.76371 4.55659C3.64229 4.5641 3.52854 4.61851 3.4465 4.70834C3.36446 4.79817 3.32056 4.91637 3.32407 5.03798C3.32758 5.15958 3.37823 5.27505 3.46531 5.36L4.16844 6.00219C4.25753 6.0833 4.37443 6.12699 4.49488 6.1242C4.61533 6.12141 4.73008 6.07234 4.81531 5.98719L6.45594 4.34656L6.45687 4.3475ZM6.45687 8.37125C6.50053 8.41479 6.53516 8.46652 6.55879 8.52347C6.58242 8.58042 6.59459 8.64147 6.59459 8.70312C6.59459 8.76478 6.58242 8.82583 6.55879 8.88278C6.53516 8.93973 6.50053 8.99146 6.45687 9.035L4.81625 10.6756C4.73085 10.7609 4.61584 10.81 4.49516 10.8126C4.37449 10.8152 4.25746 10.7712 4.16844 10.6897L3.46531 10.0475C3.37823 9.96255 3.32758 9.84708 3.32407 9.72548C3.32056 9.60388 3.36446 9.48567 3.4465 9.39584C3.52854 9.30602 3.64229 9.2516 3.76371 9.24409C3.88513 9.23659 4.00471 9.27658 4.09719 9.35563L4.46938 9.69594L5.79313 8.37125C5.83667 8.3276 5.8884 8.29296 5.94534 8.26933C6.00229 8.2457 6.06334 8.23354 6.125 8.23354C6.18666 8.23354 6.24771 8.2457 6.30466 8.26933C6.3616 8.29296 6.41333 8.3276 6.45687 8.37125ZM8 8.9375C7.87568 8.9375 7.75645 8.98689 7.66854 9.07479C7.58064 9.1627 7.53125 9.28193 7.53125 9.40625C7.53125 9.53057 7.58064 9.6498 7.66854 9.73771C7.75645 9.82561 7.87568 9.875 8 9.875H9.56563C9.4625 9.58156 9.40625 9.26562 9.40625 8.9375H8ZM3.3125 12.6875H8.04688C8.01594 12.8394 8 12.9959 8 13.1562C8 13.3128 8.01219 13.4694 8.03562 13.625H3.3125C2.56658 13.625 1.85121 13.3287 1.32376 12.8012C0.796316 12.2738 0.5 11.5584 0.5 10.8125V3.3125C0.5 2.56658 0.796316 1.85121 1.32376 1.32376C1.85121 0.796316 2.56658 0.5 3.3125 0.5H10.8125C11.5584 0.5 12.2738 0.796316 12.8012 1.32376C13.3287 1.85121 13.625 2.56658 13.625 3.3125V6.50094C13.3352 6.33317 13.0177 6.21885 12.6875 6.16344V3.3125C12.6875 2.81522 12.49 2.33831 12.1383 1.98667C11.7867 1.63504 11.3098 1.4375 10.8125 1.4375H3.3125C2.81522 1.4375 2.33831 1.63504 1.98667 1.98667C1.63504 2.33831 1.4375 2.81522 1.4375 3.3125V10.8125C1.4375 11.3098 1.63504 11.7867 1.98667 12.1383C2.33831 12.49 2.81522 12.6875 3.3125 12.6875ZM7.53125 4.71875C7.53125 4.59443 7.58064 4.4752 7.66854 4.38729C7.75645 4.29939 7.87568 4.25 8 4.25H10.3438C10.4681 4.25 10.5873 4.29939 10.6752 4.38729C10.7631 4.4752 10.8125 4.59443 10.8125 4.71875C10.8125 4.84307 10.7631 4.9623 10.6752 5.05021C10.5873 5.13811 10.4681 5.1875 10.3438 5.1875H8C7.87568 5.1875 7.75645 5.13811 7.66854 5.05021C7.58064 4.9623 7.53125 4.84307 7.53125 4.71875ZM14.0938 8.9375C14.0938 9.43478 13.8962 9.91169 13.5446 10.2633C13.1929 10.615 12.716 10.8125 12.2188 10.8125C11.7215 10.8125 11.2446 10.615 10.8929 10.2633C10.5413 9.91169 10.3438 9.43478 10.3438 8.9375C10.3438 8.44022 10.5413 7.96331 10.8929 7.61168C11.2446 7.26004 11.7215 7.0625 12.2188 7.0625C12.716 7.0625 13.1929 7.26004 13.5446 7.61168C13.8962 7.96331 14.0938 8.44022 14.0938 8.9375ZM15.5 13.1562C15.5 14.3234 14.5625 15.5 12.2188 15.5C9.875 15.5 8.9375 14.3281 8.9375 13.1562C8.9375 12.7833 9.08566 12.4256 9.34938 12.1619C9.6131 11.8982 9.97079 11.75 10.3438 11.75H14.0938C14.4667 11.75 14.8244 11.8982 15.0881 12.1619C15.3518 12.4256 15.5 12.7833 15.5 13.1562Z" fill="#404243"/>
</svg>
